<svg width="358" height="153" viewBox="0 0 358 153" fill="none" xmlns="http://www.w3.org/2000/svg">
<path d="M208.044 180.724C208.044 180.724 204.434 171.952 214.061 174.704C224.204 177.456 220.422 182.616 220.422 182.616C220.422 182.616 225.408 183.132 227.471 178.316C229.534 173.5 220.766 169.544 214.233 166.448C207.528 163.524 207.528 154.236 207.528 154.236C202.371 156.988 203.918 168.34 203.918 168.34C203.918 168.34 199.104 172.468 199.448 174.876C200.48 182.444 208.044 180.724 208.044 180.724ZM121.569 18.7019C82.7152 24.8938 81.8556 0.470139 81.8556 0.470139C94.9214 13.026 121.569 18.7019 121.569 18.7019ZM119.334 6.49005C70.5089 -1.76584 82.0275 -24.8135 82.0275 -24.8135C92.1707 -6.23779 119.334 6.49005 119.334 6.49005ZM118.99 -7.95773C67.7582 -31.5214 86.4974 -55.0851 86.4974 -55.0851C96.4687 -26.0175 118.99 -7.95773 118.99 -7.95773ZM307.929 -53.1931C318.072 -90.0006 346.783 -124.4 346.783 -124.4C291.597 -111.844 284.892 -48.5492 284.892 -48.5492C281.969 -72.9728 301.224 -110.468 301.224 -110.468C260.823 -97.9125 262.542 -43.0452 262.542 -43.0452C254.978 -69.1889 260.651 -89.4846 260.651 -89.4846C232.285 -71.9408 240.021 -34.4454 240.021 -34.4454C231.425 -42.7012 230.394 -58.697 230.394 -58.697C213.374 -34.9614 218.187 -8.30175 218.187 -8.30175C211.998 -10.8817 206.841 -18.4496 206.841 -18.4496C195.666 4.08209 205.809 37.2776 205.809 37.2776C231.597 56.1974 218.875 73.3972 218.875 73.3972C224.892 44.1576 198.588 43.6415 163.345 15.0899C136.698 -6.58176 117.271 -36.6814 104.893 -63.513C89.9357 -96.1925 85.122 -124.056 85.122 -124.056C62.4287 -105.996 78.2452 -69.1889 78.2452 -69.1889L76.3541 -66.7809C57.0992 -90.0006 39.2197 -133 39.2197 -133C39.2197 -133 28.7326 -120.96 28.045 -108.404C26.1539 -78.4767 63.4602 -46.8292 63.4602 -46.8292C63.1164 -45.6252 62.6006 -41.8413 62.6006 -41.8413C42.658 -55.6011 11.3688 -98.2565 11.3688 -98.2565C-11.6683 -55.4291 60.3657 -18.9656 60.3657 -18.9656L60.7096 -14.3217C33.2025 -22.9215 0.0221629 -50.4412 0.0221629 -50.4412C-1.35319 -1.93784 61.741 6.66205 61.741 6.66205L62.0849 10.79C40.595 8.38202 4.83592 -7.95773 4.83592 -7.95773C11.8846 29.8817 66.5548 30.0538 66.5548 30.0538L67.2425 33.1497C56.2396 36.4176 18.2456 26.9577 18.2456 26.9577C31.6552 56.1973 75.4945 52.2414 75.4945 52.2414L77.2137 54.4774C69.1335 58.7774 45.2369 57.9174 45.2369 57.9174C55.7239 72.0212 92.8583 86.9849 126.211 92.1448C150.107 95.7568 169.19 94.5528 169.19 94.5528C140.136 121.556 69.1336 114.677 69.1336 114.677C67.4144 126.2 71.0247 135.832 71.0247 135.832C82.0275 136.692 111.426 132.908 111.426 132.908C105.065 136.348 76.5261 145.636 76.5261 145.636C91.9988 167.48 113.832 169.716 113.832 169.716C136.354 164.384 159.047 148.904 163.345 145.12C167.815 141.336 170.222 143.572 170.222 143.572C152.686 186.572 172.457 193.107 175.379 194.827C178.302 196.547 178.818 199.299 178.818 199.299C178.818 199.299 177.271 198.611 173.66 201.535C170.05 204.459 173.316 208.415 173.316 208.415C183.46 202.223 189.649 207.555 191.368 210.479C193.087 213.403 189.305 215.983 189.305 215.983C189.305 215.983 200.823 216.671 201.167 209.275C201.511 200.675 185.179 193.795 185.179 193.795C187.07 161.632 229.19 123.448 252.399 107.797C271.31 94.8969 291.425 86.641 293.488 85.437C298.989 82.513 300.021 89.5649 300.021 89.5649C310.164 83.545 307.757 78.041 304.491 75.461C302.084 73.5691 299.505 73.5691 299.505 73.5691C298.129 68.7532 287.642 65.6572 272.342 63.7652C257.041 61.8733 232.456 56.5413 232.456 56.5413C240.193 58.4333 263.23 57.0574 263.23 57.0574C273.545 52.4135 300.88 -1.42186 316.525 -19.6536C352.112 -60.589 389.075 -81.9167 389.075 -81.9167C366.037 -90.1726 344.204 -70.5648 344.204 -70.5648C344.204 -70.5648 360.88 -88.6246 376.868 -104.62C390.106 -117.864 403 -129.388 403 -129.388C349.705 -138.16 307.929 -53.1931 307.929 -53.1931ZM279.218 70.6451C281.625 70.8171 284.892 71.1611 287.127 71.8491C287.642 72.0211 287.986 72.1931 288.502 72.3651C288.846 72.5371 291.769 73.7411 291.597 74.2571C291.425 74.6011 290.909 74.4291 290.737 74.2571C289.362 73.7411 286.439 75.8051 285.408 76.665H285.236C285.064 76.665 285.064 76.4931 285.064 76.4931C284.204 74.0851 281.969 71.8491 279.39 71.1611C279.218 71.1611 279.218 70.9892 279.218 70.8172C279.046 70.8172 279.046 70.6451 279.218 70.6451ZM249.305 88.017C245.694 89.3929 241.224 93.5208 238.646 96.4448C238.474 96.6168 238.474 96.6168 238.302 96.4448C238.13 96.4448 238.13 96.2728 238.13 96.1008C238.989 93.8648 238.989 91.4569 237.614 89.3929C237.098 88.5329 236.067 87.6729 235.207 87.157C235.035 87.157 235.035 86.985 235.035 86.813C235.035 86.641 235.207 86.6409 235.379 86.6409C239.333 88.5329 244.663 89.0488 248.789 87.5009C248.961 87.5009 249.133 87.5009 249.133 87.6729C249.648 87.8449 249.476 88.017 249.305 88.017ZM235.379 71.8491C235.035 72.1931 234.519 72.3652 234.176 72.5372C234.004 72.5372 233.832 72.5371 233.832 72.3651C233.832 72.1931 233.832 72.0211 233.832 72.0211C234.176 71.6771 234.519 71.5052 235.035 71.3332C238.13 68.7532 236.583 64.4532 235.035 61.5293C235.035 61.3573 235.035 61.1853 235.207 61.1853C235.379 61.1853 235.551 61.1853 235.551 61.3573C237.958 64.9693 243.115 67.0332 247.242 67.2052C247.413 67.2052 247.413 67.3772 247.413 67.3772C247.413 67.5492 247.413 67.5491 247.242 67.7211C243.631 68.4091 238.646 69.7852 235.379 71.8491ZM234.176 74.2571C237.442 77.0091 242.256 78.7291 246.554 77.6971C246.726 77.6971 246.898 77.6971 246.898 77.869C246.898 78.041 246.898 78.2131 246.726 78.2131C243.975 79.2451 238.13 81.653 236.239 83.717C236.067 83.889 236.067 83.889 235.895 83.717C235.723 83.717 235.723 83.545 235.895 83.373C237.786 80.105 236.583 76.837 233.832 74.6011L233.66 74.4291C233.488 74.2571 233.488 74.0851 233.66 74.0851C233.66 73.9131 233.832 73.9131 234.176 74.2571ZM111.426 109.173C111.426 109.173 84.9501 101.605 74.8069 90.4249C74.8069 90.4249 64.1479 103.497 81.3398 108.141C98.3598 112.785 111.426 109.173 111.426 109.173Z" fill="#272525" fill-opacity="0.08"/>
</svg>
